<svg width="61" height="59" viewBox="0 0 61 59" fill="none" xmlns="http://www.w3.org/2000/svg">
<path d="M44.4729 5.68542e-06L15 6.97372e-06C6.71573 7.33584e-06 -2.26678e-06 6.71572 -1.90466e-06 15L-6.47176e-07 43.7679C-2.88509e-07 51.9732 6.6918 58.8999 14.7087 57.1516C38.9935 51.8555 51.7263 32.7244 57.4023 16.0716C60.2575 7.69462 53.3231 5.29857e-06 44.4729 5.68542e-06Z" fill="#ADA7FF"/>
<path d="M24.4863 35.0058C22.6712 34.1702 20.6137 32.6466 18.4877 31.2345C17.2808 30.4332 16.1369 29.5547 15.2568 28.3964C14.3479 27.2007 14.2669 26.1287 14.9571 25.0556C15.6104 24.0401 16.7508 23.5945 18.1404 23.8794C19.5441 24.1672 20.9046 24.2075 22.3234 23.8684C24.6986 23.3 26.8619 24.9461 26.9585 27.3476C27.0127 28.6897 27.7675 29.6505 28.5099 30.6459C29.1008 31.4384 29.4608 32.2807 29.2074 33.2779C28.6795 35.3502 27.3258 35.9716 24.4863 35.0058Z" fill="white"/>
<path d="M29.2084 16.3738C28.7795 17.4659 28.2681 18.5042 27.3219 19.2639C25.9748 20.3454 24.5544 20.0912 23.673 18.6124C22.177 16.102 23.004 13.1374 25.5431 11.9049C27.5126 10.9494 29.0901 11.7524 29.4442 13.8873C29.5863 14.74 29.4518 15.5617 29.2084 16.3738Z" fill="white"/>
<path d="M28.8501 19.0184C29.5819 17.5203 30.62 15.9774 32.5594 15.3164C34.483 14.6609 35.8887 15.6536 35.9752 17.6743C36.1015 20.6167 33.5519 22.9453 30.598 22.5869C28.8837 22.3789 28.1428 21.0304 28.8501 19.0184Z" fill="white"/>
<path d="M21.9129 19.9816C21.3575 21.5764 20.2838 22.6193 18.546 22.8397C16.6515 23.0798 15.1708 21.4276 15.7228 19.6363C16.2682 17.8668 17.4233 16.5091 19.1012 15.6626C20.2723 15.0718 21.1066 15.3909 21.6975 16.5731C22.2482 17.675 22.326 18.8187 21.9129 19.9816Z" fill="white"/>
<path d="M34.9501 27.9578C34.5587 29.0082 33.8159 30.2427 32.4539 30.9835C31.1611 31.6868 30.1426 31.2731 29.6971 29.861C29.1934 28.2666 29.3399 26.6998 30.1721 25.269C30.9003 24.0169 33.1061 23.4244 34.3794 24.0346C35.4032 24.5244 35.6659 25.885 34.9501 27.9578Z" fill="white"/>
</svg>
